HIERARCHY
ROOT Hips
{
 OFFSET 0.000000 0.000000 0.000000
 CHANNELS 6 Xposition Yposition Zposition Yrotation Xrotation Zrotation
 JOINT Chest
 {
  OFFSET 0.000000 9.585900 0.002600
  CHANNELS 3 Yrotation Xrotation Zrotation
  JOINT Chest2
  {
   OFFSET 0.000000 9.601200 -0.005300
   CHANNELS 3 Yrotation Xrotation Zrotation
   JOINT Chest3
   {
    OFFSET 0.000000 9.561800 0.000000
    CHANNELS 3 Yrotation Xrotation Zrotation
    JOINT Chest4
    {
     OFFSET 0.000000 9.552100 0.000000
     CHANNELS 3 Yrotation Xrotation Zrotation
     JOINT Neck
     {
      OFFSET 0.000000 14.453000 0.000000
      CHANNELS 3 Yrotation Xrotation Zrotation
      JOINT Head
      {
       OFFSET 0.000000 8.936500 -0.011300
       CHANNELS 3 Yrotation Xrotation Zrotation
       End Site
       {
        OFFSET 0.000000 17.073600 -0.006000
       }
      }
     }
     JOINT RightCollar
     {
      OFFSET -2.921100 9.558500 0.000000
      CHANNELS 3 Yrotation Xrotation Zrotation
      JOINT RightShoulder
      {
       OFFSET -13.519700 0.000000 0.000000
       CHANNELS 3 Yrotation Xrotation Zrotation
       JOINT RightElbow
       {
        OFFSET 0.000000 -29.696600 0.000000
        CHANNELS 3 Yrotation Xrotation Zrotation
        JOINT RightWrist
        {
         OFFSET 0.000000 -24.004700 0.000000
         CHANNELS 3 Yrotation Xrotation Zrotation
         End Site
         {
          OFFSET 0.000000 -17.728500 0.000000
         }
        }
       }
      }
     }
     JOINT LeftCollar
     {
      OFFSET 2.921100 9.558500 0.000000
      CHANNELS 3 Yrotation Xrotation Zrotation
      JOINT LeftShoulder
      {
       OFFSET 13.519700 0.000000 0.000000
       CHANNELS 3 Yrotation Xrotation Zrotation
       JOINT LeftElbow
       {
        OFFSET 0.000000 -29.696600 0.000000
        CHANNELS 3 Yrotation Xrotation Zrotation
        JOINT LeftWrist
        {
         OFFSET 0.000000 -24.004700 0.000000
         CHANNELS 3 Yrotation Xrotation Zrotation
         End Site
         {
          OFFSET 0.000000 -17.728500 0.000000
         }
        }
       }
      }
     }
    }
   }
  }
 }
 JOINT RightHip
 {
  OFFSET -7.771700 -0.012900 -0.001300
  CHANNELS 3 Yrotation Xrotation Zrotation
  JOINT RightKnee
  {
   OFFSET 0.000000 -40.869800 0.001200
   CHANNELS 3 Yrotation Xrotation Zrotation
   JOINT RightAnkle
   {
    OFFSET 0.000000 -39.717900 0.002100
    CHANNELS 3 Yrotation Xrotation Zrotation
    JOINT RightToe
    {
     OFFSET 0.000000 -4.965400 11.033500
     CHANNELS 3 Yrotation Xrotation Zrotation
     End Site
     {
      OFFSET 0.000000 -1.423100 5.872300
     }
    }
   }
  }
 }
 JOINT LeftHip
 {
  OFFSET 7.771700 -0.012900 -0.001300
  CHANNELS 3 Yrotation Xrotation Zrotation
  JOINT LeftKnee
  {
   OFFSET 0.000000 -40.869800 0.001200
   CHANNELS 3 Yrotation Xrotation Zrotation
   JOINT LeftAnkle
   {
    OFFSET 0.000000 -39.717900 0.002100
    CHANNELS 3 Yrotation Xrotation Zrotation
    JOINT LeftToe
    {
     OFFSET 0.000000 -4.965400 11.033500
     CHANNELS 3 Yrotation Xrotation Zrotation
     End Site
     {
      OFFSET 0.000000 -1.423100 5.872300
     }
    }
   }
  }
 }
}
MOTION
Frames: 7
Frame Time: 0.008333
0.000000 85.388000 0.000000 0.000000 -5.767877 0.000000 0.000000 11.653817 0.000000 0.000000 -5.885947 0.000000 0.000000 -0.000000 0.000000 0.000000 -0.000000 0.000000 0.000000 12.528835 0.000000 0.000000 0.711642 0.000000 0.000000 -0.000000 0.000000 0.000000 0.000000 -90.000000 0.000000 -2.309062 0.000000 0.000000 2.309062 0.000000 0.000000 -0.000000 0.000000 0.000000 -0.000000 90.000000 0.000000 -2.309062 0.000000 0.000000 2.309062 0.000000 0.000000 8.520406 0.000000 0.000000 1.905762 0.000000 -0.000000 -4.658285 0.000000 0.000000 -0.000000 0.000000 0.000000 8.520406 0.000000 0.000000 1.905762 0.000000 -0.000000 -4.658285 0.000000 0.000000 -0.000000 0.000000
-16.517254 58.309427 55.761279 174.555517 -29.085621 -4.578230 4.753546 21.223737 5.509869 0.483406 2.933957 0.408774 0.797548 4.768687 0.677855 3.443977 18.139545 3.030816 0.095395 10.278574 -2.135075 1.025399 -16.654610 -4.184051 3.174074 -5.135823 -0.709279 15.109035 -17.660304 -20.753252 144.328362 -76.270492 -111.598278 20.612528 -23.619155 -48.246620 -7.817804 -5.763916 -1.905184 3.904148 -12.153437 2.366983 165.983816 -83.295461 157.379308 -6.973427 1.256365 3.956185 7.998990 -42.119456 1.148614 -3.652062 66.890378 -4.907372 4.697407 8.994034 8.119557 -0.116089 -5.681553 1.079705 -9.180222 -48.882037 6.740452 26.361371 64.864331 25.618476 -10.342065 34.168823 4.081987 0.193631 -19.048421 -7.008806
-16.515032 58.313665 55.761156 174.552358 -29.069616 -4.595425 4.747081 21.191004 5.514356 0.482368 2.927540 0.409386 0.803568 4.776116 0.681873 3.443338 18.131626 3.033921 0.015612 10.315878 -2.160151 1.019145 -16.555184 -4.195418 3.158854 -5.125768 -0.696120 15.111274 -17.654945 -20.752313 144.314688 -76.294201 -111.594826 20.607257 -23.581739 -48.255455 -7.825268 -5.754430 -1.916283 3.892393 -12.158708 2.376432 166.091727 -83.296929 157.277709 -6.957758 1.269167 3.966076 7.975566 -42.128678 1.167408 -3.610569 66.880496 -4.859369 4.689657 8.983206 8.108354 -0.101689 -4.813904 0.913896 -9.260582 -48.889076 6.828282 26.365003 64.871894 25.583846 -10.361513 34.159058 4.052523 0.202043 -18.982173 -6.991831
-16.513727 58.318736 55.759834 174.561724 -29.058025 -4.610926 4.728375 21.161962 5.512593 0.481194 2.920302 0.410192 0.810832 4.784877 0.685738 3.441621 18.123216 3.037075 -0.018479 10.353522 -2.169660 0.972138 -16.428350 -4.209713 3.146210 -5.117901 -0.682498 15.121705 -17.640180 -20.755967 144.264639 -76.352958 -111.588549 20.627659 -23.584491 -48.236207 -7.823193 -5.734070 -1.923827 3.878737 -12.175244 2.378590 166.130652 -83.312274 157.249699 -6.969764 1.270210 3.954199 7.962273 -42.124848 1.167688 -3.588443 66.869137 -4.820545 4.680970 8.942520 8.096971 -0.087961 -3.789461 0.722802 -9.330108 -48.893334 6.896059 26.351647 64.880336 25.538921 -10.389489 34.155360 4.023559 0.195071 -18.867963 -6.970947
-16.521865 58.321288 55.760661 174.575453 -29.021708 -4.571109 4.683287 21.111853 5.448404 0.480264 2.912566 0.411038 0.792629 4.735746 0.681776 3.451044 18.144500 3.052709 -0.035967 10.429857 -2.184772 0.926452 -16.278964 -4.219088 3.150285 -5.076918 -0.671086 15.128950 -17.626671 -20.763596 144.242931 -76.386825 -111.581268 20.634554 -23.570874 -48.229275 -7.824797 -5.696026 -1.950306 3.890918 -12.171908 2.391313 166.193118 -83.317527 157.188478 -6.965624 1.273735 3.955694 7.997418 -42.156599 1.085607 -3.559902 66.883473 -4.788231 4.673387 8.921548 8.095539 -0.076885 -2.992074 0.572316 -9.310017 -48.934580 6.848441 26.328102 64.885948 25.509602 -10.443335 34.131762 3.964822 0.231051 -18.813657 -6.944705
-16.519773 58.326363 55.759120 174.588078 -29.010263 -4.588067 4.667974 21.082063 5.449031 0.479660 2.904778 0.411831 0.794363 4.742443 0.685948 3.441380 18.102289 3.058274 -0.052110 10.525710 -2.197440 0.882869 -16.106685 -4.223705 3.144249 -5.049589 -0.642869 15.109305 -17.618741 -20.761099 144.185974 -76.433026 -111.497997 20.652642 -23.579621 -48.216638 -7.830520 -5.653310 -1.978075 3.900298 -12.166587 2.406511 166.264827 -83.318356 157.122729 -6.960174 1.280944 3.951182 7.982585 -42.160377 1.090396 -3.538707 66.879530 -4.756449 4.663922 8.909868 8.087681 -0.069243 -2.357344 0.451446 -9.384608 -48.939494 6.918718 26.315218 64.895532 25.462405 -10.459716 34.132255 3.940400 0.241421 -18.785928 -6.930348
-16.514308 58.330109 55.760239 174.591113 -28.983789 -4.620000 4.670638 21.036600 5.471031 0.479605 2.909043 0.415577 0.791980 4.736031 0.686184 3.442732 18.061406 3.063005 -0.071993 10.632980 -2.205151 0.847553 -15.913658 -4.226733 3.145851 -5.012980 -0.625354 15.088680 -17.610211 -20.755220 144.122298 -76.474175 -111.432364 20.672196 -23.589054 -48.204962 -7.843020 -5.631023 -2.022272 3.895790 -12.158315 2.441377 166.359795 -83.331618 157.041922 -6.956268 1.293439 3.944420 7.966883 -42.179513 1.117730 -3.543212 66.865295 -4.745735 4.662101 8.896410 8.081859 -0.066054 -1.843052 0.354361 -9.485236 -48.960877 7.035071 26.311208 64.911094 25.417478 -10.483669 34.132781 3.913082 0.248523 -18.734758 -6.912564
